<svg width="122" height="30" viewBox="0 0 122 30" fill="none" xmlns="http://www.w3.org/2000/svg">
<path fill-rule="evenodd" clip-rule="evenodd" d="M51.2905 9.32608V5.97742H36.2842V9.32608H42.0145V24.0996H45.5602V9.32608H51.2905Z" fill="#050152"/>
<path fill-rule="evenodd" clip-rule="evenodd" d="M58.8207 11.4751C58.5611 11.4482 58.3104 11.4214 58.0239 11.4214C56.9494 11.4214 55.2124 11.7258 54.4424 13.3912V11.5288H51.1475V24.1087H54.5498V18.3605C54.5498 15.6475 56.0541 14.8059 57.8 14.8059C58.1045 14.8059 58.4357 14.8327 58.8207 14.9044V11.4751Z" fill="#050152"/>
<path fill-rule="evenodd" clip-rule="evenodd" d="M63.0557 16.3816C63.1363 15.2355 64.1033 13.9014 65.8672 13.9014C67.8101 13.9014 68.6249 15.1281 68.6786 16.3816H63.0557ZM69.0099 19.6497C68.598 20.7779 67.7295 21.5658 66.1447 21.5658C64.4614 21.5658 63.0557 20.366 62.9751 18.7006H71.9736C71.9736 18.6469 72.0273 18.1365 72.0273 17.653C72.0273 13.6149 69.6993 11.1348 65.8134 11.1348C62.5901 11.1348 59.6265 13.7403 59.6265 17.7605C59.6265 22.0045 62.6707 24.4847 66.1179 24.4847C69.2069 24.4847 71.2035 22.6671 71.8482 20.5003L69.0099 19.6497Z" fill="#050152"/>
<path fill-rule="evenodd" clip-rule="evenodd" d="M76.8622 16.3816C76.9428 15.2355 77.9098 13.9014 79.6736 13.9014C81.6166 13.9014 82.4314 15.1281 82.4851 16.3816H76.8622ZM82.8253 19.6497C82.4135 20.7779 81.545 21.5658 79.9602 21.5658C78.2769 21.5658 76.8711 20.366 76.7906 18.7006H85.789C85.789 18.6469 85.8427 18.1365 85.8427 17.653C85.8427 13.6149 83.5148 11.1348 79.6289 11.1348C76.4056 11.1348 73.4419 13.7403 73.4419 17.7605C73.4419 22.0045 76.4861 24.4847 79.9333 24.4847C83.0223 24.4847 85.019 22.6671 85.6636 20.5003L82.8253 19.6497Z" fill="#050152"/>
<path fill-rule="evenodd" clip-rule="evenodd" d="M98.2793 24.0996H102.702L95.4678 13.8745L102.649 5.97742H98.0196L90.7582 14.179V5.97742H87.2305V24.0996H90.7582V19.0677L93.0056 16.5875L98.2793 24.0996Z" fill="#050152"/>
<path fill-rule="evenodd" clip-rule="evenodd" d="M107.385 24.0997V5.59253H103.983V24.0997H107.385Z" fill="#050152"/>
<path fill-rule="evenodd" clip-rule="evenodd" d="M112.399 16.3816C112.48 15.2355 113.447 13.9014 115.21 13.9014C117.153 13.9014 117.968 15.1281 118.022 16.3816H112.399ZM118.353 19.6497C117.941 20.7779 117.073 21.5658 115.488 21.5658C113.805 21.5658 112.399 20.366 112.318 18.7006H121.317C121.317 18.6469 121.371 18.1365 121.371 17.653C121.371 13.6149 119.043 11.1348 115.157 11.1348C111.933 11.1348 108.97 13.7403 108.97 17.7605C108.97 22.0045 112.014 24.4847 115.461 24.4847C118.55 24.4847 120.547 22.6671 121.191 20.5003L118.353 19.6497Z" fill="#050152"/>
<path fill-rule="evenodd" clip-rule="evenodd" d="M27.3546 29.9999H27.1397C23.9969 29.9641 21.5078 27.1885 21.5078 24.2606V8.50221C21.5078 5.84297 23.6836 3.66724 26.3428 3.66724C29.002 3.66724 31.1778 5.84297 31.1778 8.50221V28.0122C31.1688 29.4717 28.4469 30.0089 27.3546 29.9999ZM27.8918 26.6602V8.50221C27.8918 7.65161 27.1844 6.95323 26.3428 6.95323C25.7877 6.95323 25.2683 7.33824 24.7938 7.6158C24.7938 13.1492 24.7938 18.7183 24.7938 24.2606C24.7938 25.4963 25.9309 26.705 27.1844 26.7229H27.3993C27.5068 26.7139 27.6948 26.696 27.8918 26.6602Z" fill="url(#paint0_linear_7610_78220)"/>
<path fill-rule="evenodd" clip-rule="evenodd" d="M0.833652 14.6981L0.941095 14.8861C2.5438 17.5901 6.19689 18.3601 8.73078 16.8917L22.3761 9.01252C24.6772 7.68738 25.4741 4.71477 24.149 2.41368C22.8238 0.112589 19.8512 -0.684286 17.5501 0.640855L0.645625 10.4003C-0.625794 11.1345 0.278525 13.7669 0.833652 14.6981ZM3.45707 12.5671L19.1797 3.48812C19.9139 3.0673 20.8719 3.32695 21.3017 4.0522C21.5793 4.5357 21.5076 5.1714 21.5076 5.72653C16.7174 8.49321 11.8914 11.2778 7.09226 14.0534C6.02677 14.6712 4.40616 14.2862 3.77045 13.2118L3.66301 13.0238C3.60033 12.9342 3.5287 12.7552 3.45707 12.5671Z" fill="url(#paint1_linear_7610_78220)"/>
<path fill-rule="evenodd" clip-rule="evenodd" d="M28.8946 4.41039C28.5812 4.21341 28.2409 4.05224 27.8828 3.92689C27.3993 3.75677 26.871 3.66724 26.3338 3.66724C25.7876 3.66724 25.2683 3.75677 24.7848 3.92689C24.758 3.93585 24.7311 3.9448 24.7042 3.95375C24.2924 4.09701 23.97 4.3119 23.594 4.52679L21.5078 5.73553L21.3556 5.82507L21.2839 5.86984L21.2034 5.9146L21.0601 5.99519L21.0512 6.00414L20.8989 6.09368L20.8363 6.12949L20.7467 6.18321L20.6124 6.2638L20.5945 6.27275L20.4423 6.36229L20.3886 6.3981L20.2901 6.45182L20.1558 6.52345L20.1379 6.53241L19.9857 6.62194L19.9319 6.6488L19.8335 6.71148L19.529 6.89055L19.4843 6.91741L19.3768 6.98009L19.0724 7.15916L19.0366 7.17707L18.9202 7.23975C15.088 9.4513 11.2469 11.6718 7.41474 13.8834L7.3252 13.9371L7.30729 13.946C7.23566 13.9818 7.17299 14.0266 7.10136 14.0624C6.08064 14.6534 4.55852 14.331 3.86909 13.364L0.950195 14.8951C2.5529 17.5991 6.20599 18.3691 8.73988 16.9007L15.0612 13.2476L21.5078 9.52293L24.5252 7.78592C24.8923 7.57103 25.3131 7.27556 25.6802 7.11439C25.7071 7.09649 25.725 7.09649 25.7518 7.08753C25.9399 7.00695 26.1368 6.96218 26.3428 6.96218C27.1934 6.96218 27.8917 7.66952 27.8917 8.51116V24.198V27.5108C29.1453 27.3855 31.1688 26.8124 31.1688 25.55V8.50221C31.1688 6.78311 30.2555 5.26099 28.8946 4.41039Z" fill="url(#paint2_linear_7610_78220)"/>
<defs>
<linearGradient id="paint0_linear_7610_78220" x1="25.0612" y1="21.2979" x2="29.4699" y2="9.63915" gradientUnits="userSpaceOnUse">
<stop stop-color="#09E82E"/>
<stop offset="1" stop-color="#0034C2"/>
</linearGradient>
<linearGradient id="paint1_linear_7610_78220" x1="8.41711" y1="13.6797" x2="16.3095" y2="4.03233" gradientUnits="userSpaceOnUse">
<stop stop-color="#09E82E"/>
<stop offset="1" stop-color="#0034C2"/>
</linearGradient>
<linearGradient id="paint2_linear_7610_78220" x1="17.8607" y1="17.408" x2="27.079" y2="2.27923" gradientUnits="userSpaceOnUse">
<stop stop-color="#09E82E"/>
<stop offset="1" stop-color="#0034C2"/>
</linearGradient>
</defs>
</svg>
